HIERARCHY
ROOT Hips
{
	OFFSET 0.000000 97.167313 0.000000
	CHANNELS 6 Xposition Yposition Zposition Xrotation Yrotation Zrotation
	JOINT Spine
	{
		OFFSET 0.000000 13.784798 0.064400
		CHANNELS 3 Xrotation Yrotation Zrotation
		JOINT Spine1
		{
			OFFSET 0.000000 12.037903 0.404700
			CHANNELS 3 Xrotation Yrotation Zrotation
			JOINT Spine2
			{
				OFFSET 0.000000 17.795601 0.420200
				CHANNELS 3 Xrotation Yrotation Zrotation
				JOINT Neck
				{
					OFFSET 0.000000 39.131302 11.954600
					CHANNELS 3 Xrotation Yrotation Zrotation
					JOINT Head
					{
						OFFSET 0.000000 14.456192 15.627699
						CHANNELS 3 Xrotation Yrotation Zrotation
						JOINT HeadTop_End
						{
							OFFSET 0.000000 15.703506 7.603401
							CHANNELS 3 Xrotation Yrotation Zrotation
							End Site
							{
								OFFSET 0.000000 17.447403 0.000000
							}
						}
					}
				}
				JOINT LeftShoulder
				{
					OFFSET 17.399500 24.608795 1.168800
					CHANNELS 3 Xrotation Yrotation Zrotation
					JOINT LeftArm
					{
						OFFSET 18.980635 5.765305 1.818600
						CHANNELS 3 Xrotation Yrotation Zrotation
						JOINT LeftForeArm
						{
							OFFSET 49.290169 0.000000 0.000000
							CHANNELS 3 Xrotation Yrotation Zrotation
							JOINT LeftHand
							{
								OFFSET 31.562012 0.000000 0.000000
								CHANNELS 3 Xrotation Yrotation Zrotation
								JOINT LeftHandThumb1
								{
									OFFSET 6.133995 -4.388519 7.076070
									CHANNELS 3 Xrotation Yrotation Zrotation
									JOINT LeftHandThumb2
									{
										OFFSET 6.037666 -3.485840 3.485847
										CHANNELS 3 Xrotation Yrotation Zrotation
										JOINT LeftHandThumb3
										{
											OFFSET 6.496506 -3.750763 3.750761
											CHANNELS 3 Xrotation Yrotation Zrotation
											JOINT LeftHandThumb4
											{
												OFFSET 5.616882 -3.242905 3.242910
												CHANNELS 3 Xrotation Yrotation Zrotation
												End Site
												{
													OFFSET -1.254608 7.132141 0.375429
												}
											}
										}
									}
								}
								JOINT LeftHandPinky1
								{
									OFFSET 18.920792 -0.453171 -11.426712
									CHANNELS 3 Xrotation Yrotation Zrotation
									JOINT LeftHandPinky2
									{
										OFFSET 4.919586 0.000000 0.000000
										CHANNELS 3 Xrotation Yrotation Zrotation
										JOINT LeftHandPinky3
										{
											OFFSET 5.233047 0.000000 0.000000
											CHANNELS 3 Xrotation Yrotation Zrotation
											JOINT LeftHandPinky4
											{
												OFFSET 5.571716 0.000000 0.000000
												CHANNELS 3 Xrotation Yrotation Zrotation
												End Site
												{
													OFFSET -3.459808 4.342407 -0.466164
												}
											}
										}
									}
								}
								JOINT LeftHandRing1
								{
									OFFSET 22.726120 -0.094986 -6.500475
									CHANNELS 3 Xrotation Yrotation Zrotation
									JOINT LeftHandRing2
									{
										OFFSET 6.408615 0.000000 0.000000
										CHANNELS 3 Xrotation Yrotation Zrotation
										JOINT LeftHandRing3
										{
											OFFSET 6.150223 0.000000 0.000000
											CHANNELS 3 Xrotation Yrotation Zrotation
											JOINT LeftHandRing4
											{
												OFFSET 6.145386 0.000000 0.000000
												CHANNELS 3 Xrotation Yrotation Zrotation
												End Site
												{
													OFFSET -3.671402 4.923981 -0.202372
												}
											}
										}
									}
								}
								JOINT LeftHandMiddle1
								{
									OFFSET 23.373947 0.000000 0.000001
									CHANNELS 3 Xrotation Yrotation Zrotation
									JOINT LeftHandMiddle2
									{
										OFFSET 6.996567 0.000000 0.000000
										CHANNELS 3 Xrotation Yrotation Zrotation
										JOINT LeftHandMiddle3
										{
											OFFSET 7.015945 0.000000 0.000000
											CHANNELS 3 Xrotation Yrotation Zrotation
											JOINT LeftHandMiddle4
											{
												OFFSET 7.721573 0.000000 0.000000
												CHANNELS 3 Xrotation Yrotation Zrotation
												End Site
												{
													OFFSET -4.651108 6.158463 0.251582
												}
											}
										}
									}
								}
								JOINT LeftHandIndex1
								{
									OFFSET 21.310577 -0.490082 6.209344
									CHANNELS 3 Xrotation Yrotation Zrotation
									JOINT LeftHandIndex2
									{
										OFFSET 7.536453 0.000000 0.000000
										CHANNELS 3 Xrotation Yrotation Zrotation
										JOINT LeftHandIndex3
										{
											OFFSET 7.512344 0.000000 0.000000
											CHANNELS 3 Xrotation Yrotation Zrotation
											JOINT LeftHandIndex4
											{
												OFFSET 10.212402 0.000000 0.000001
												CHANNELS 3 Xrotation Yrotation Zrotation
												End Site
												{
													OFFSET -5.180801 8.690506 1.388433
												}
											}
										}
									}
								}
							}
						}
					}
				}
				JOINT RightShoulder
				{
					OFFSET -17.399500 24.608795 1.168800
					CHANNELS 3 Xrotation Yrotation Zrotation
					JOINT RightArm
					{
						OFFSET -18.980635 5.765305 1.818600
						CHANNELS 3 Xrotation Yrotation Zrotation
						JOINT RightForeArm
						{
							OFFSET -49.290169 0.000000 0.000000
							CHANNELS 3 Xrotation Yrotation Zrotation
							JOINT RightHand
							{
								OFFSET -31.562012 0.000000 0.000000
								CHANNELS 3 Xrotation Yrotation Zrotation
								JOINT RightHandThumb1
								{
									OFFSET -6.133995 -4.388519 7.076070
									CHANNELS 3 Xrotation Yrotation Zrotation
									JOINT RightHandThumb2
									{
										OFFSET -6.037666 -3.485840 3.485847
										CHANNELS 3 Xrotation Yrotation Zrotation
										JOINT RightHandThumb3
										{
											OFFSET -6.496506 -3.750763 3.750761
											CHANNELS 3 Xrotation Yrotation Zrotation
											JOINT RightHandThumb4
											{
												OFFSET -5.616882 -3.242905 3.242910
												CHANNELS 3 Xrotation Yrotation Zrotation
												End Site
												{
													OFFSET 1.254608 7.132141 0.375429
												}
											}
										}
									}
								}
								JOINT RightHandIndex1
								{
									OFFSET -21.310577 -0.490082 6.209344
									CHANNELS 3 Xrotation Yrotation Zrotation
									JOINT RightHandIndex2
									{
										OFFSET -7.536453 0.000000 0.000000
										CHANNELS 3 Xrotation Yrotation Zrotation
										JOINT RightHandIndex3
										{
											OFFSET -7.512344 0.000000 0.000000
											CHANNELS 3 Xrotation Yrotation Zrotation
											JOINT RightHandIndex4
											{
												OFFSET -10.212402 0.000000 0.000001
												CHANNELS 3 Xrotation Yrotation Zrotation
												End Site
												{
													OFFSET 5.180801 8.690506 1.388433
												}
											}
										}
									}
								}
								JOINT RightHandMiddle1
								{
									OFFSET -23.373947 0.000000 0.000001
									CHANNELS 3 Xrotation Yrotation Zrotation
									JOINT RightHandMiddle2
									{
										OFFSET -6.996567 0.000000 0.000000
										CHANNELS 3 Xrotation Yrotation Zrotation
										JOINT RightHandMiddle3
										{
											OFFSET -7.015945 0.000000 0.000000
											CHANNELS 3 Xrotation Yrotation Zrotation
											JOINT RightHandMiddle4
											{
												OFFSET -7.721573 0.000000 0.000000
												CHANNELS 3 Xrotation Yrotation Zrotation
												End Site
												{
													OFFSET 4.651108 6.158463 0.251582
												}
											}
										}
									}
								}
								JOINT RightHandRing1
								{
									OFFSET -22.726120 -0.094986 -6.500475
									CHANNELS 3 Xrotation Yrotation Zrotation
									JOINT RightHandRing2
									{
										OFFSET -6.408615 0.000000 0.000000
										CHANNELS 3 Xrotation Yrotation Zrotation
										JOINT RightHandRing3
										{
											OFFSET -6.150223 0.000000 0.000000
											CHANNELS 3 Xrotation Yrotation Zrotation
											JOINT RightHandRing4
											{
												OFFSET -6.145386 0.000000 0.000000
												CHANNELS 3 Xrotation Yrotation Zrotation
												End Site
												{
													OFFSET 3.671402 4.923981 -0.202372
												}
											}
										}
									}
								}
								JOINT RightHandPinky1
								{
									OFFSET -18.920792 -0.453171 -11.426712
									CHANNELS 3 Xrotation Yrotation Zrotation
									JOINT RightHandPinky2
									{
										OFFSET -4.919586 0.000000 0.000000
										CHANNELS 3 Xrotation Yrotation Zrotation
										JOINT RightHandPinky3
										{
											OFFSET -5.233047 0.000000 0.000000
											CHANNELS 3 Xrotation Yrotation Zrotation
											JOINT RightHandPinky4
											{
												OFFSET -5.571716 0.000000 0.000000
												CHANNELS 3 Xrotation Yrotation Zrotation
												End Site
												{
													OFFSET 3.459808 4.342407 -0.466164
												}
											}
										}
									}
								}
							}
						}
					}
				}
			}
		}
	}
	JOINT LeftUpLeg
	{
		OFFSET 19.899099 -7.885101 -3.429500
		CHANNELS 3 Xrotation Yrotation Zrotation
		JOINT LeftLeg
		{
			OFFSET 1.745560 -36.997807 10.304700
			CHANNELS 3 Xrotation Yrotation Zrotation
			JOINT LeftFoot
			{
				OFFSET -1.745558 -29.803308 -13.615400
				CHANNELS 3 Xrotation Yrotation Zrotation
				JOINT LeftToeBase
				{
					OFFSET 1.181900 -18.539904 15.226099
					CHANNELS 3 Xrotation Yrotation Zrotation
					JOINT LeftToe_End
					{
						OFFSET -0.863701 1.402801 16.534700
						CHANNELS 3 Xrotation Yrotation Zrotation
						End Site
						{
							OFFSET 0.000000 16.616566 0.000000
						}
					}
				}
			}
		}
	}
	JOINT RightUpLeg
	{
		OFFSET -19.899099 -7.885101 -3.429500
		CHANNELS 3 Xrotation Yrotation Zrotation
		JOINT RightLeg
		{
			OFFSET -1.745560 -36.997807 10.304700
			CHANNELS 3 Xrotation Yrotation Zrotation
			JOINT RightFoot
			{
				OFFSET 1.745558 -29.803308 -13.615400
				CHANNELS 3 Xrotation Yrotation Zrotation
				JOINT RightToeBase
				{
					OFFSET -1.181900 -18.539904 15.226099
					CHANNELS 3 Xrotation Yrotation Zrotation
					JOINT RightToe_End
					{
						OFFSET 0.863701 1.402801 16.534700
						CHANNELS 3 Xrotation Yrotation Zrotation
						End Site
						{
							OFFSET 0.000000 16.616566 0.000000
						}
					}
				}
			}
		}
	}
}
MOTION
Frames: 4
Frame Time: 0.033333
0.487690 80.115730 4.347095 2.281489 -23.753776 0.304128 2.745759 1.859621 2.712098 2.722508 -4.399257 0.711483 3.360624 -8.808116 4.639113 12.118093 6.829912 -4.433333 -0.737341 20.027404 8.229667 -0.000000 -0.000000 0.000001 3.544249 4.756008 -11.623016 -54.038835 -33.116442 -50.381548 -0.000486 -81.882377 -0.000467 -58.768389 25.992591 38.870320 -14.557478 10.837978 12.229956 0.749583 -4.257755 13.305508 -10.783701 -23.179381 -4.132398 0.000003 0.000001 0.000000 -8.298291 -6.522659 -38.520143 2.848779 5.024374 -59.084422 0.876782 3.084724 -31.727506 0.000001 0.000001 -0.000000 -6.054128 -0.166576 -49.857581 3.046274 5.137017 -61.313932 0.351716 2.001108 -19.935104 -0.000001 0.000000 -0.000000 -2.430835 1.729231 -41.460932 2.952353 5.084740 -60.259925 1.321756 3.707976 -39.227843 0.000001 -0.000001 0.000001 -0.809532 2.578167 -31.496437 3.095912 5.163761 -61.866972 0.503771 2.378634 -23.913126 -0.000001 0.000003 0.000002 -14.733700 2.115958 -4.463087 72.337529 138.834045 -52.653474 0.000014 29.080698 -0.000005 -49.752467 -7.371296 -31.498759 8.377160 -4.904147 11.022000 21.620219 -18.183881 -18.379221 -0.702971 -49.821196 -32.535176 0.000001 -0.000002 0.000002 0.558946 -4.406581 25.436661 1.653056 -3.560341 49.799100 1.737708 -3.630039 51.149214 -0.000000 0.000000 -0.000001 10.969814 -12.875592 52.800825 6.387604 -4.324421 111.833686 0.247383 -1.499106 18.739138 -0.000000 0.000001 -0.000008 3.705083 -7.151341 57.622447 5.328221 -4.608680 98.293416 1.627339 -3.538502 49.383999 -0.000001 -0.000000 -0.000003 0.474823 -5.172991 58.987679 3.194315 -4.421941 71.674161 1.771409 -3.656897 51.679561 -0.000000 -0.000002 0.000011 -32.046513 4.221433 14.160754 64.411464 -2.863981 -0.608511 -13.880340 2.602576 -12.490360 -11.166123 -0.699119 3.537026 0.000000 -0.000000 0.000000 -32.005918 -1.628762 -0.426895 50.749876 -4.721831 -3.450946 -20.608014 -2.422418 5.791250 -0.000054 0.000004 -0.000105 -0.000000 0.000001 -0.000000 
0.994240 78.518860 -0.552376 1.387558 -23.161272 -0.335730 2.884054 1.406419 2.875323 2.812332 -4.655500 0.798031 3.459370 -9.060525 4.732093 12.140448 6.844399 -4.433918 -0.717511 19.830676 8.344937 0.000001 0.000001 -0.000003 3.415770 4.594991 -11.191902 -54.460882 -32.885465 -50.097136 0.000523 -82.289327 0.000515 -58.900369 25.402317 39.411476 -14.557479 10.837980 12.229951 0.749586 -4.257757 13.305512 -10.783698 -23.179384 -4.132399 0.000000 -0.000000 -0.000001 -8.298289 -6.522651 -38.520132 2.848779 5.024370 -59.084422 0.876786 3.084723 -31.727503 0.000001 0.000000 -0.000006 -6.054127 -0.166575 -49.857584 3.046273 5.137016 -61.313932 0.351716 2.001107 -19.935102 -0.000000 -0.000002 -0.000000 -2.430834 1.729232 -41.460935 2.952352 5.084740 -60.259931 1.321757 3.707975 -39.227843 0.000001 -0.000001 0.000004 -0.809534 2.578171 -31.496441 3.095909 5.163760 -61.866979 0.503773 2.378629 -23.913131 -0.000002 0.000000 -0.000004 -14.755994 2.153979 -4.648266 72.029932 139.250769 -52.991490 0.000004 29.328344 -0.000000 -49.139502 -7.158025 -31.103783 8.377164 -4.904148 11.021996 21.620218 -18.183883 -18.379223 -0.702965 -49.821200 -32.535179 0.000001 -0.000001 0.000001 0.558946 -4.406575 25.436663 1.653056 -3.560346 49.799104 1.737706 -3.630038 51.149214 -0.000000 -0.000001 -0.000003 10.969814 -12.875591 52.800825 6.387604 -4.324420 111.833686 0.247381 -1.499106 18.739133 0.000001 0.000001 -0.000004 3.705082 -7.151340 57.622447 5.328222 -4.608677 98.293416 1.627339 -3.538501 49.383999 -0.000000 -0.000000 -0.000005 0.474825 -5.172989 58.987679 3.194309 -4.421941 71.674161 1.771411 -3.656899 51.679557 0.000001 0.000000 0.000001 -26.262453 5.147425 11.114895 70.167510 -5.451682 -0.079815 -15.817507 2.259072 -11.309172 -19.300120 -2.138505 6.082861 0.000000 0.000000 0.000000 -37.178827 -1.462762 2.458268 52.952435 -5.303822 -3.994580 -17.374700 -4.068602 3.383487 0.000000 0.000000 0.000001 0.000000 -0.000003 -0.000000 
1.494642 76.762756 -5.457456 0.519279 -22.712575 -0.885128 2.980379 0.984298 2.919275 2.891142 -4.868607 0.946189 3.551198 -9.268474 4.885665 12.146203 6.867516 -4.568932 -0.476979 19.729085 8.281764 0.000002 -0.000001 -0.000000 3.282074 4.594426 -10.767655 -54.985352 -32.488918 -50.076748 0.000431 -82.584391 0.000431 -58.936869 25.159270 39.289908 -14.557481 10.837977 12.229957 0.749586 -4.257753 13.305512 -10.783702 -23.179386 -4.132401 -0.000001 0.000001 -0.000001 -8.298288 -6.522657 -38.520132 2.848776 5.024367 -59.084422 0.876783 3.084720 -31.727503 0.000000 0.000001 -0.000004 -6.054128 -0.166577 -49.857587 3.046273 5.137015 -61.313932 0.351715 2.001106 -19.935111 0.000000 0.000000 0.000005 -2.430835 1.729230 -41.460928 2.952353 5.084741 -60.259925 1.321756 3.707976 -39.227843 0.000001 -0.000000 0.000001 -0.809535 2.578167 -31.496434 3.095909 5.163766 -61.866972 0.503773 2.378634 -23.913127 -0.000001 0.000001 0.000001 -14.757920 2.406663 -4.954261 71.860311 139.574588 -53.444478 0.000035 29.806515 -0.000019 -48.756797 -7.078634 -31.463628 8.377163 -4.904148 11.021998 21.620219 -18.183883 -18.379218 -0.702965 -49.821196 -32.535172 0.000002 0.000000 0.000002 0.558945 -4.406581 25.436658 1.653054 -3.560345 49.799094 1.737708 -3.630043 51.149217 -0.000000 -0.000005 -0.000002 10.969815 -12.875591 52.800825 6.387604 -4.324421 111.833686 0.247382 -1.499107 18.739140 0.000002 0.000001 -0.000006 3.705082 -7.151340 57.622447 5.328221 -4.608678 98.293416 1.627339 -3.538502 49.383999 -0.000001 -0.000001 -0.000002 0.474826 -5.172990 58.987672 3.194311 -4.421940 71.674161 1.771410 -3.656896 51.679557 0.000001 -0.000000 0.000006 -19.454049 5.934669 8.461902 73.977588 -6.792889 0.390551 -17.008190 1.894877 -10.189815 -25.514274 -3.925573 8.173827 0.000001 -0.000001 0.000000 -42.682699 -1.305109 4.748747 54.265395 -5.587157 -4.363433 -12.141524 -5.648338 2.127072 0.000003 -0.000000 -0.000001 -0.000000 -0.000000 0.000000 
2.034189 75.072197 -10.261007 -0.213148 -22.335622 -1.269704 3.021046 0.610774 2.841753 2.929210 -5.036054 1.050327 3.598087 -9.433189 4.993911 12.157796 6.906672 -4.715053 -0.173075 19.712940 8.251078 0.000000 -0.000000 0.000000 3.161358 4.582703 -10.384254 -55.419595 -32.196419 -50.206012 0.000069 -82.811119 0.000079 -58.053835 24.512154 39.570189 -14.557483 10.837979 12.229957 0.749582 -4.257759 13.305510 -10.783697 -23.179382 -4.132398 -0.000002 -0.000000 -0.000001 -8.298291 -6.522653 -38.520132 2.848781 5.024373 -59.084422 0.876785 3.084719 -31.727499 -0.000003 -0.000000 0.000003 -6.054127 -0.166576 -49.857577 3.046274 5.137019 -61.313932 0.351714 2.001107 -19.935106 0.000001 0.000000 0.000003 -2.430836 1.729231 -41.460932 2.952355 5.084742 -60.259931 1.321757 3.707977 -39.227836 -0.000001 0.000000 0.000004 -0.809534 2.578167 -31.496437 3.095909 5.163762 -61.866972 0.503774 2.378634 -23.913131 -0.000000 0.000001 0.000001 -14.764571 2.638892 -5.278742 71.618317 139.751380 -53.852012 0.000002 29.813943 0.000017 -48.541926 -6.024342 -30.696824 8.377162 -4.904150 11.021995 21.620219 -18.183885 -18.379219 -0.702976 -49.821200 -32.535172 -0.000002 -0.000001 -0.000001 0.558947 -4.406581 25.436661 1.653052 -3.560346 49.799100 1.737708 -3.630036 51.149214 -0.000000 -0.000001 -0.000001 10.969815 -12.875593 52.800822 6.387608 -4.324422 111.833686 0.247381 -1.499108 18.739138 0.000001 0.000002 -0.000006 3.705082 -7.151340 57.622447 5.328221 -4.608678 98.293409 1.627339 -3.538501 49.383999 0.000001 -0.000000 -0.000003 0.474826 -5.172990 58.987679 3.194311 -4.421942 71.674161 1.771410 -3.656898 51.679561 -0.000000 -0.000001 -0.000001 -12.387809 6.783498 6.452795 75.377681 -7.876263 0.622817 -18.210772 0.593183 -9.561625 -29.272190 -6.417012 11.328325 0.000000 -0.000003 0.000001 -47.857237 -1.255074 6.575563 54.464728 -5.782428 -4.608579 -6.472450 -6.961319 1.098856 0.000006 -0.000005 -0.000003 0.000000 -0.000002 -0.000000 
